<svg width="183" height="33" viewBox="0 0 183 33" fill="none" xmlns="http://www.w3.org/2000/svg">
<path d="M176.372 31.9496L172.721 26.6616L169.651 31.9496H163.34L169.617 22.2265L163.169 12.9128H169.719L173.37 18.1667L176.44 12.9128H182.752L176.372 22.4994L182.922 31.9496H176.372Z" fill="#1D2DBA"/>
<path d="M141.14 22.3971C141.14 20.4411 141.504 18.7239 142.231 17.2456C142.982 15.7672 143.994 14.63 145.268 13.834C146.541 13.0379 147.963 12.6399 149.532 12.6399C150.874 12.6399 152.045 12.9128 153.046 13.4587C154.07 14.0045 154.854 14.721 155.4 15.608V12.9128H161.234V31.9496H155.4V29.2544C154.832 30.1414 154.036 30.8579 153.012 31.4037C152.011 31.9496 150.84 32.2225 149.498 32.2225C147.951 32.2225 146.541 31.8245 145.268 31.0284C143.994 30.2097 142.982 29.0611 142.231 27.5827C141.504 26.0816 141.14 24.3531 141.14 22.3971ZM155.4 22.4312C155.4 20.9756 154.991 19.827 154.172 18.9855C153.376 18.1439 152.398 17.7232 151.238 17.7232C150.078 17.7232 149.089 18.1439 148.27 18.9855C147.474 19.8043 147.076 20.9415 147.076 22.3971C147.076 23.8527 147.474 25.0126 148.27 25.8769C149.089 26.7184 150.078 27.1392 151.238 27.1392C152.398 27.1392 153.376 26.7184 154.172 25.8769C154.991 25.0354 155.4 23.8868 155.4 22.4312Z" fill="#1D2DBA"/>
<path d="M139.713 8V12.6739H133.367V31.9495H127.534V12.6739H121.188V8H139.713Z" fill="#1D2DBA"/>
<path d="M119.748 22.1241C119.748 22.67 119.714 23.2386 119.646 23.83H106.443C106.534 25.0126 106.909 25.9224 107.569 26.5592C108.251 27.1733 109.081 27.4804 110.059 27.4804C111.515 27.4804 112.527 26.8663 113.095 25.6381H119.305C118.986 26.889 118.406 28.0149 117.565 29.0156C116.746 30.0163 115.711 30.801 114.46 31.3696C113.209 31.9382 111.81 32.2225 110.264 32.2225C108.399 32.2225 106.738 31.8245 105.283 31.0284C103.827 30.2324 102.69 29.0952 101.871 27.6168C101.052 26.1385 100.643 24.4099 100.643 22.4312C100.643 20.4525 101.041 18.7239 101.837 17.2456C102.656 15.7672 103.793 14.63 105.249 13.834C106.704 13.0379 108.376 12.6399 110.264 12.6399C112.106 12.6399 113.744 13.0265 115.176 13.7998C116.609 14.5731 117.724 15.6762 118.52 17.1091C119.339 18.542 119.748 20.2137 119.748 22.1241ZM113.778 20.5889C113.778 19.5882 113.437 18.7922 112.754 18.2008C112.072 17.6095 111.219 17.3138 110.196 17.3138C109.218 17.3138 108.387 17.5981 107.705 18.1667C107.046 18.7353 106.636 19.5427 106.477 20.5889H113.778Z" fill="#1D2DBA"/>
<path d="M99.2184 8L92.9751 31.9495H85.9131L82.0921 16.1878L78.1347 31.9495H71.0727L65 8H71.2432L74.689 25.4333L78.9535 8H85.3673L89.4612 25.4333L92.941 8H99.2184Z" fill="#1D2DBA"/>
<g clip-path="url(#clip0_84_1185)">
<path d="M19.7822 32H10.2095L0 0H9.85999L19.7822 32Z" fill="#1D2DBA"/>
<path d="M35.7763 32H26.2036L15.9941 0H25.8541L35.7763 32Z" fill="#1D2DBA"/>
<path d="M28.6943 0H59V7.90109H48.4321V32H38.969V7.90109H31.0668L28.6943 0Z" fill="#1D2DBA"/>
</g>
<defs>
<clipPath id="clip0_84_1185">
<rect width="59" height="32" fill="white"/>
</clipPath>
</defs>
</svg>
